<?xml version="1.0" standalone="no"?><!DOCTYPE svg PUBLIC "-//W3C//DTD SVG 1.1//EN" "http://www.w3.org/Graphics/SVG/1.1/DTD/svg11.dtd"><svg t="1591001581020" class="icon" viewBox="0 0 1024 1024" version="1.1" xmlns="http://www.w3.org/2000/svg" p-id="1541" xmlns:xlink="http://www.w3.org/1999/xlink" width="200" height="200"><defs><style type="text/css"></style></defs><path d="M751.80113 11.570621H210.932429a74.804068 74.804068 0 0 0-74.572655 74.572656v851.713446A74.804068 74.804068 0 0 0 210.932429 1012.429379h708.700565a74.804068 74.804068 0 0 0 74.572656-74.572656V254.032994z" fill="#FCEFE3" p-id="1542"></path><path d="M751.80113 179.344633a74.861921 74.861921 0 0 0 74.572655 74.630508h167.774012L751.80113 11.570621z" fill="#F9B582" p-id="1543"></path><path d="M18.223729 624.813559m69.423729 0l569.853107 0q69.423729 0 69.423729 69.423729l0 185.129944q0 69.423729-69.423729 69.423728l-569.853107 0q-69.423729 0-69.423729-69.423728l0-185.129944q0-69.423729 69.423729-69.423729Z" fill="#F49D47" p-id="1544"></path><path d="M279.314802 185.650621h354.350283v49.753673H279.314802zM279.314802 295.455819h354.350283v49.753673H279.314802zM279.314802 405.261017h472.428475v49.753672H279.314802zM279.314802 515.124068h578.126102v49.753672H279.314802z" fill="#F9B582" p-id="1545"></path><path d="M282.265311 887.698079a49.637966 49.637966 0 0 1-17.008814-40.497175 48.712316 48.712316 0 0 1 15.562486-38.703729q15.562486-13.711186 43.910509-13.711186h58.720903l2.371978 22.794124H324.845198a39.976497 39.976497 0 0 0-26.265311 7.752316 29.620791 29.620791 0 0 0 2.371977 45.067571 56.522486 56.522486 0 0 0 32.918418 8.215141 107.317514 107.317514 0 0 0 35.406102-4.570395c8.388701-3.066215 12.554124-7.347345 12.554124-12.901243l3.586893 23.141243a47.323842 47.323842 0 0 1-13.537627 9.487909 77.581017 77.581017 0 0 1-18.860113 5.785311 123.921356 123.921356 0 0 1-23.141243 2.024859q-30.604294 0.404972-47.613107-13.884746z m99.623051-100.143729a45.819661 45.819661 0 0 0-11.570622-33.265536 43.447684 43.447684 0 0 0-32.571299-11.570622A76.423955 76.423955 0 0 0 313.274576 746.305085a70.92791 70.92791 0 0 0-21.463503 11.570621l-17.818757-12.207005a65.489718 65.489718 0 0 1 26.43887-18.80226 94.647684 94.647684 0 0 1 36.447458-6.710961 83.539887 83.539887 0 0 1 37.60452 7.752317 53.514124 53.514124 0 0 1 23.777627 22.447005 71.795706 71.795706 0 0 1 8.157288 35.406102v113.449943h-24.529717zM446.799548 652.178079h24.471864V676.881356h-24.471864z m0 70.75435h24.471864v176.509831h-24.471864z" fill="#FFFFFF" p-id="1546"></path></svg>