<?xml version="1.0" standalone="no"?><!DOCTYPE svg PUBLIC "-//W3C//DTD SVG 1.1//EN" "http://www.w3.org/Graphics/SVG/1.1/DTD/svg11.dtd"><svg t="1591001618455" class="icon" viewBox="0 0 1024 1024" version="1.1" xmlns="http://www.w3.org/2000/svg" p-id="2936" xmlns:xlink="http://www.w3.org/1999/xlink" width="200" height="200"><defs><style type="text/css"></style></defs><path d="M751.80113 11.570621H210.932429a74.804068 74.804068 0 0 0-74.572655 74.572656v851.713446A74.804068 74.804068 0 0 0 210.932429 1012.429379h708.700565a74.804068 74.804068 0 0 0 74.572656-74.572656V254.032994z" fill="#ECE2F7" p-id="2937"></path><path d="M751.80113 179.344633a74.861921 74.861921 0 0 0 74.572655 74.630508h167.774012L751.80113 11.570621z" fill="#AAA4ED" p-id="2938"></path><path d="M18.223729 624.813559m69.423729 0l569.853107 0q69.423729 0 69.423729 69.423729l0 185.129944q0 69.423729-69.423729 69.423728l-569.853107 0q-69.423729 0-69.423729-69.423728l0-185.129944q0-69.423729 69.423729-69.423729Z" fill="#876DF2" p-id="2939"></path><path d="M133.929944 873.061243l-17.355933-8.504407a55.134011 55.134011 0 0 1-25.166101-25.68678 95.920452 95.920452 0 0 1-8.446554-42.695593v-28.926553a93.08565 93.08565 0 0 1 8.504407-42.174916 55.307571 55.307571 0 0 1 25.455367-25.281808 94.821243 94.821243 0 0 1 42.406328-8.3887 103.614915 103.614915 0 0 1 26.323163 3.124068 69.423729 69.423729 0 0 1 21.289944 9.372203 62.828475 62.828475 0 0 1 16.314576 15.736045l-18.165875 16.141017a59.877966 59.877966 0 0 0-20.364294-16.256723 57.853107 57.853107 0 0 0-24.876836-5.322486q-26.381017 0-39.397967 13.132656t-13.016949 39.918644v28.926553q0 27.075254 13.132656 40.497175t39.28226 13.76904a65.431864 65.431864 0 0 0 26.26531-5.091073 63.291299 63.291299 0 0 0 21.347797-15.44678l15.793898 15.620339a63.638418 63.638418 0 0 1-16.314576 15.504633 70.75435 70.75435 0 0 1-21.289944 9.140791 103.730621 103.730621 0 0 1-26.323163 3.066214zM272.777401 864.036158a59.125876 59.125876 0 0 1-24.876836-26.265311 92.564972 92.564972 0 0 1-8.620113-41.538531v-28.926553a90.48226 90.48226 0 0 1 8.620113-41.075707 59.183729 59.183729 0 0 1 24.876836-26.033898 80.99435 80.99435 0 0 1 39.340113-8.909378 80.531525 80.531525 0 0 1 39.224407 8.909378 59.010169 59.010169 0 0 1 24.934689 26.033898 90.48226 90.48226 0 0 1 8.620113 41.075707v29.215819a90.887232 90.887232 0 0 1-8.620113 41.249265 59.125876 59.125876 0 0 1-24.934689 26.091752 79.895141 79.895141 0 0 1-39.224407 9.025085 80.357966 80.357966 0 0 1-39.340113-8.851526z m74.919774-27.769491a57.043164 57.043164 0 0 0 12.669831-39.571526v-29.215819a56.291073 56.291073 0 0 0-12.669831-39.28226 45.761808 45.761808 0 0 0-35.75322-13.942599 45.414689 45.414689 0 0 0-35.579661 13.942599 56.522486 56.522486 0 0 0-12.554125 39.28226v29.215819a57.274576 57.274576 0 0 0 12.554125 39.571526 45.414689 45.414689 0 0 0 35.290395 14.174011 45.819661 45.819661 0 0 0 35.753221-14.174011zM416.48452 694.237288h24.471864v176.509831h-24.471864zM527.331073 763.661017a53.919096 53.919096 0 0 0-11.570621-36.505311 39.513672 39.513672 0 0 0-31.703503-12.901243 42.406328 42.406328 0 0 0-31.877062 11.570622 45.125424 45.125424 0 0 0-11.570621 32.918418l-3.52904-34.017627a56.869605 56.869605 0 0 1 23.141243-25.513221 68.555932 68.555932 0 0 1 33.381243-7.810169 56.23322 56.23322 0 0 1 31.47209 8.620113 52.067797 52.067797 0 0 1 19.612204 24.414011 101.821469 101.821469 0 0 1 6.826666 39.224407v107.143955H527.331073z m110.557289 0a53.629831 53.629831 0 0 0-11.570622-36.389605 39.513672 39.513672 0 0 0-31.587796-12.901243 40.497175 40.497175 0 0 0-31.877063 12.554125 50.968588 50.968588 0 0 0-11.570621 35.406101l-10.355706-25.51322a75.614011 75.614011 0 0 1 23.604067-33.612655 57.853107 57.853107 0 0 1 36.389605-11.570622 61.613559 61.613559 0 0 1 32.918418 8.388701 52.993446 52.993446 0 0 1 20.827119 24.58757 95.284068 95.284068 0 0 1 7.173785 38.935142v107.143955h-24.471864z" fill="#FFFFFF" p-id="2940"></path><path d="M833.084746 376.045198v109.920904h-555.389831V376.045198h555.389831m1.67774-46.282486H276.075028a44.778305 44.778305 0 0 0-44.662599 44.604746v113.276384A44.778305 44.778305 0 0 0 276.075028 532.248588h558.687458a44.720452 44.720452 0 0 0 44.604746-44.604746V374.367458a44.720452 44.720452 0 0 0-44.604746-44.604746z" fill="#AAA4ED" p-id="2941"></path><path d="M413.649718 350.011299m-66.531074 0a66.531073 66.531073 0 1 0 133.062147 0 66.531073 66.531073 0 1 0-133.062147 0Z" fill="#ECE2F7" p-id="2942"></path><path d="M413.649718 306.621469a43.389831 43.389831 0 1 1-43.389831 43.38983 43.389831 43.389831 0 0 1 43.389831-43.38983m0-46.282486a89.672316 89.672316 0 1 0 89.672316 89.672316A89.672316 89.672316 0 0 0 413.649718 260.338983z" fill="#AAA4ED" p-id="2943"></path></svg>