<?xml version="1.0" standalone="no"?><!DOCTYPE svg PUBLIC "-//W3C//DTD SVG 1.1//EN" "http://www.w3.org/Graphics/SVG/1.1/DTD/svg11.dtd"><svg t="1591001657475" class="icon" viewBox="0 0 1024 1024" version="1.1" xmlns="http://www.w3.org/2000/svg" p-id="4327" xmlns:xlink="http://www.w3.org/1999/xlink" width="200" height="200"><defs><style type="text/css"></style></defs><path d="M751.80113 11.570621H210.932429a74.804068 74.804068 0 0 0-74.572655 74.572656v851.713446A74.804068 74.804068 0 0 0 210.932429 1012.429379h708.700565a74.804068 74.804068 0 0 0 74.572656-74.572656V254.032994z" fill="#E5F3F9" p-id="4328"></path><path d="M751.80113 179.344633a74.861921 74.861921 0 0 0 74.572655 74.630508h167.774012L751.80113 11.570621z" fill="#88D6F2" p-id="4329"></path><path d="M18.223729 624.813559m69.423729 0l569.853107 0q69.423729 0 69.423729 69.423729l0 185.129944q0 69.423729-69.423729 69.423728l-569.853107 0q-69.423729 0-69.423729-69.423728l0-185.129944q0-69.423729 69.423729-69.423729Z" fill="#52BCF7" p-id="4330"></path><path d="M279.314802 185.650621h354.350283v49.753673H279.314802zM279.314802 295.455819h354.350283v49.753673H279.314802zM279.314802 405.261017h472.428475v49.753672H279.314802zM279.314802 515.124068h578.126102v49.753672H279.314802z" fill="#88D6F2" p-id="4331"></path><path d="M166.269831 905.169718a53.224859 53.224859 0 0 1-20.769266-24.414012 94.069153 94.069153 0 0 1-7.173785-38.414463V804.158192a97.36678 97.36678 0 0 1 7.173785-39.224407 52.704181 52.704181 0 0 1 20.017175-24.414011 58.952316 58.952316 0 0 1 32.050622-8.56226 78.101695 78.101695 0 0 1 35.463954 7.578757 55.712542 55.712542 0 0 1 24.414012 24.703277l-3.586893 34.133333a47.728814 47.728814 0 0 0-5.322486-21.926327 43.447684 43.447684 0 0 0-15.562486-16.835255 44.199774 44.199774 0 0 0-23.83548-6.595254 43.679096 43.679096 0 0 0-34.191186 13.364068A54.266215 54.266215 0 0 0 162.856497 804.158192v38.298757a52.762034 52.762034 0 0 0 11.91774 36.910283 43.968362 43.968362 0 0 0 34.364746 13.132655 43.042712 43.042712 0 0 0 23.83548-6.653107 44.720452 44.720452 0 0 0 15.620339-17.355933 48.075932 48.075932 0 0 0 5.438192-22.215593l2.371978 36.910283a42.695593 42.695593 0 0 1-21.058531 23.141243 80.99435 80.99435 0 0 1-35.868927 7.058079 62.19209 62.19209 0 0 1-33.207683-8.215141z m87.589604-241.421017H278.562712v247.26418h-24.703277zM342.20113 904.533333a59.241582 59.241582 0 0 1-24.934689-26.26531 92.564972 92.564972 0 0 1-8.56226-41.538531v-28.926554a90.48226 90.48226 0 0 1 8.56226-41.075706 59.299435 59.299435 0 0 1 24.934689-26.033899 80.589379 80.589379 0 0 1 39.28226-8.909378 80.99435 80.99435 0 0 1 39.28226 8.909378 59.183729 59.183729 0 0 1 24.876836 26.033899 90.48226 90.48226 0 0 1 8.620113 41.075706v29.215819a90.887232 90.887232 0 0 1-8.620113 41.249266 59.299435 59.299435 0 0 1-24.876836 26.091751 80.126554 80.126554 0 0 1-39.28226 9.025085 79.952994 79.952994 0 0 1-39.28226-8.851526z m75.209039-27.769491a57.043164 57.043164 0 0 0 12.669831-39.571526v-29.215819a56.291073 56.291073 0 0 0-12.669831-39.28226 45.935367 45.935367 0 0 0-35.811073-13.942599 45.414689 45.414689 0 0 0-35.579661 13.942599 56.522486 56.522486 0 0 0-12.554124 39.28226v29.215819a57.274576 57.274576 0 0 0 12.554124 39.571526 45.414689 45.414689 0 0 0 35.174689 14.174011 45.935367 45.935367 0 0 0 35.811074-14.174011zM531.785763 913.558418l-17.008814-8.504407a55.134011 55.134011 0 0 1-25.397514-25.686779 95.920452 95.920452 0 0 1-8.330847-42.522034v-28.926554a93.08565 93.08565 0 0 1 8.504406-42.174915 55.538983 55.538983 0 0 1 25.455368-25.281808 94.821243 94.821243 0 0 1 42.406327-8.388701 104.135593 104.135593 0 0 1 26.381017 3.124068 69.944407 69.944407 0 0 1 21.232091 9.372204 62.828475 62.828475 0 0 1 16.314576 15.736045l-18.165876 16.141017a59.877966 59.877966 0 0 0-20.364294-16.256723 57.853107 57.853107 0 0 0-24.876836-5.322486q-26.381017 0-39.397966 13.132655t-13.016949 39.918644v28.926554q0 27.075254 13.132655 40.497175t39.166554 13.59548a65.431864 65.431864 0 0 0 26.265311-5.091073 63.291299 63.291299 0 0 0 21.347796-15.44678l15.793899 15.620339a62.597062 62.597062 0 0 1-16.314577 15.44678 69.423729 69.423729 0 0 1-21.23209 9.198644 104.135593 104.135593 0 0 1-26.381017 3.066214z" fill="#FFFFFF" p-id="4332"></path></svg>