<?xml version="1.0" standalone="no"?><!DOCTYPE svg PUBLIC "-//W3C//DTD SVG 1.1//EN" "http://www.w3.org/Graphics/SVG/1.1/DTD/svg11.dtd"><svg t="1591001615553" class="icon" viewBox="0 0 1024 1024" version="1.1" xmlns="http://www.w3.org/2000/svg" p-id="2810" xmlns:xlink="http://www.w3.org/1999/xlink" width="200" height="200"><defs><style type="text/css"></style></defs><path d="M751.80113 11.570621H210.932429a74.804068 74.804068 0 0 0-74.572655 74.572656v851.713446A74.804068 74.804068 0 0 0 210.932429 1012.429379h708.700565a74.804068 74.804068 0 0 0 74.572656-74.572656V254.032994z" fill="#E5F3F9" p-id="2811"></path><path d="M751.80113 179.344633a74.861921 74.861921 0 0 0 74.572655 74.630508h167.774012L751.80113 11.570621z" fill="#88D6F2" p-id="2812"></path><path d="M18.223729 624.813559m69.423729 0l569.853107 0q69.423729 0 69.423729 69.423729l0 185.129944q0 69.423729-69.423729 69.423728l-569.853107 0q-69.423729 0-69.423729-69.423728l0-185.129944q0-69.423729 69.423729-69.423729Z" fill="#52BCF7" p-id="2813"></path><path d="M279.314802 185.650621h354.350283v49.753673H279.314802zM279.314802 295.455819h354.350283v49.753673H279.314802zM279.314802 405.261017h472.428475v49.753672H279.314802zM279.314802 515.124068h578.126102v49.753672H279.314802z" fill="#88D6F2" p-id="2814"></path><path d="M188.254011 844.134689l-17.355932-9.256497a62.134237 62.134237 0 0 1-26.43887-27.017401 92.969944 92.969944 0 0 1-9.140791-42.811299v-19.901469a104.135593 104.135593 0 0 1 8.793672-44.720452 62.886328 62.886328 0 0 1 25.397515-28.232317 79.027345 79.027345 0 0 1 40.150056-9.661469 71.795706 71.795706 0 0 1 37.778079 9.48791 60.861469 60.861469 0 0 1 23.893333 28.000904 106.507571 106.507571 0 0 1 8.215142 43.968361v20.248588h-127.276836v-22.099887h104.482711V740.519774c0-17.355932-4.107571-30.951412-12.322711-40.497175a43.389831 43.389831 0 0 0-34.711865-14.347571 48.191638 48.191638 0 0 0-38.067345 15.099661q-13.421921 15.215367-13.479774 42.869153v22.447005a56.291073 56.291073 0 0 0 14.289718 41.075707 54.150508 54.150508 0 0 0 40.497175 14.52113 61.208588 61.208588 0 0 0 24.240452-5.091074 67.39887 67.39887 0 0 0 21.347797-14.463277l16.661695 16.025311a93.779887 93.779887 0 0 1-29.273673 19.438644 83.482034 83.482034 0 0 1-32.976271 6.88452zM309.745537 665.310734h24.471864v248.305537h-24.471864z m43.216271 171.997289a42.811299 42.811299 0 0 1-21.116384-23.141243l2.371977-36.910283a48.191638 48.191638 0 0 0 5.785311 22.215593 43.852655 43.852655 0 0 0 15.620339 17.355933 43.042712 43.042712 0 0 0 23.83548 6.653107 43.968362 43.968362 0 0 0 34.133333-13.190509 52.530621 52.530621 0 0 0 12.0913-36.968135V734.734463a53.976949 53.976949 0 0 0-12.0913-37.662373 45.877514 45.877514 0 0 0-73.589152 10.124294 46.282486 46.282486 0 0 0-5.785311 21.752769l-3.586893-34.133334a55.712542 55.712542 0 0 1 24.414012-24.703277 77.812429 77.812429 0 0 1 35.406101-7.578757A59.010169 59.010169 0 0 1 422.616949 671.096045a53.398418 53.398418 0 0 1 20.306441 24.587571 98.350282 98.350282 0 0 1 6.942373 38.935141v38.472316a94.069153 94.069153 0 0 1-7.115932 38.414464 53.051299 53.051299 0 0 1-20.942825 24.414011 61.844972 61.844972 0 0 1-32.976272 8.388701 80.99435 80.99435 0 0 1-35.868926-7.231639zM528.19887 844.134689l-13.421921-2.776949A114.664859 114.664859 0 0 1 489.726554 833.084746a90.077288 90.077288 0 0 1-20.711413-13.074802l14.116158-17.355933a129.880226 129.880226 0 0 0 29.96791 15.041808 89.55661 89.55661 0 0 0 29.389379 5.380339 74.109831 74.109831 0 0 0 39.224406-8.677966 27.306667 27.306667 0 0 0 13.826893-24.529717 21.40565 21.40565 0 0 0-6.71096-17.355933 36.331751 36.331751 0 0 0-16.893108-7.868022 247.032768 247.032768 0 0 0-28.405875-3.35548h-9.719323a166.616949 166.616949 0 0 1-29.215819-5.091074 40.03435 40.03435 0 0 1-19.670056-12.785537 40.786441 40.786441 0 0 1-7.868023-27.017401 49.52226 49.52226 0 0 1 8.215141-28.926553 51.026441 51.026441 0 0 1 24.182599-18.165876 102.978531 102.978531 0 0 1 38.125198-6.305989 120.218757 120.218757 0 0 1 23.141243 2.256271 124.673446 124.673446 0 0 1 22.215593 6.653108 100.72226 100.72226 0 0 1 19.438644 10.471412l-14.116158 16.835254a121.491525 121.491525 0 0 0-26.149604-11.570621 91.002938 91.002938 0 0 0-25.513221-3.991865 60.977175 60.977175 0 0 0-34.711864 8.330848 26.843842 26.843842 0 0 0-12.264859 23.488362 18.80226 18.80226 0 0 0 6.653107 15.736045 36.794576 36.794576 0 0 0 16.777402 6.88452 266.471412 266.471412 0 0 0 27.769491 2.719096H554.753446a2.719096 2.719096 0 0 1 0.983503 0 154.409944 154.409944 0 0 1 31.587797 4.570395 42.869153 42.869153 0 0 1 21.868474 14.116158 46.282486 46.282486 0 0 1 8.793673 30.430735 48.480904 48.480904 0 0 1-8.793673 29.273672 55.134011 55.134011 0 0 1-25.860339 18.455141 117.731073 117.731073 0 0 1-41.017853 6.363842z" fill="#FFFFFF" p-id="2815"></path></svg>