<?xml version="1.0" standalone="no"?><!DOCTYPE svg PUBLIC "-//W3C//DTD SVG 1.1//EN" "http://www.w3.org/Graphics/SVG/1.1/DTD/svg11.dtd"><svg t="1591064933292" class="icon" viewBox="0 0 1024 1024" version="1.1" xmlns="http://www.w3.org/2000/svg" p-id="7576" xmlns:xlink="http://www.w3.org/1999/xlink" width="200" height="200"><defs><style type="text/css"></style></defs><path d="M170.666667 0h568.888889l284.444444 284.444444v682.666667c0 31.288889-25.6 56.888889-56.888889 56.888889H170.666667c-31.288889 0-56.888889-25.6-56.888889-56.888889V56.888889c0-31.288889 25.6-56.888889 56.888889-56.888889z" fill="#589FFC" p-id="7577"></path><path d="M0 369.777778h853.333333v455.111111H0V369.777778z" fill="#1874ED" p-id="7578"></path><path d="M739.555556 0l170.666666 170.666667 113.777778 113.777777h-227.555556c-31.288889 0-56.888889-25.6-56.888888-56.888888V0z" fill="#B2D4FF" p-id="7579"></path><path d="M142.222222 483.555556h56.888889v227.555555H142.222222z" fill="#FFFFFF" p-id="7580"></path><path d="M142.222222 483.555556h113.777778v56.888888H142.222222zM142.222222 568.888889h113.777778v56.888889H142.222222zM284.444444 483.555556h113.777778v56.888888h-113.777778z" fill="#FFFFFF" p-id="7581"></path><path d="M312.888889 512h56.888889v199.111111h-56.888889z" fill="#FFFFFF" p-id="7582"></path><path d="M284.444444 654.222222h113.777778v56.888889h-113.777778zM426.666667 483.555556h56.888889v227.555555h-56.888889z" fill="#FFFFFF" p-id="7583"></path><path d="M426.666667 654.222222h113.777777v56.888889h-113.777777zM568.888889 483.555556h56.888889v227.555555h-56.888889z" fill="#FFFFFF" p-id="7584"></path><path d="M568.888889 483.555556h142.222222v56.888888h-142.222222zM568.888889 568.888889h142.222222v56.888889h-142.222222zM568.888889 654.222222h142.222222v56.888889h-142.222222z" fill="#FFFFFF" p-id="7585"></path></svg>