<?xml version="1.0" standalone="no"?><!DOCTYPE svg PUBLIC "-//W3C//DTD SVG 1.1//EN" "http://www.w3.org/Graphics/SVG/1.1/DTD/svg11.dtd"><svg t="1591001606486" class="icon" viewBox="0 0 1024 1024" version="1.1" xmlns="http://www.w3.org/2000/svg" p-id="2429" xmlns:xlink="http://www.w3.org/1999/xlink" width="200" height="200"><defs><style type="text/css"></style></defs><path d="M751.80113 11.570621H210.932429a74.804068 74.804068 0 0 0-74.572655 74.572656v851.713446A74.804068 74.804068 0 0 0 210.932429 1012.429379h708.700565a74.804068 74.804068 0 0 0 74.572656-74.572656V254.032994z" fill="#FCEFE3" p-id="2430"></path><path d="M751.80113 179.344633a74.861921 74.861921 0 0 0 74.572655 74.630508h167.774012L751.80113 11.570621z" fill="#F9B582" p-id="2431"></path><path d="M18.223729 624.813559m69.423729 0l569.853107 0q69.423729 0 69.423729 69.423729l0 185.129944q0 69.423729-69.423729 69.423728l-569.853107 0q-69.423729 0-69.423729-69.423728l0-185.129944q0-69.423729 69.423729-69.423729Z" fill="#F49D47" p-id="2432"></path><path d="M172.575819 688.451977h24.471865v248.305537h-24.471865z m43.216271 171.997289a42.811299 42.811299 0 0 1-21.116384-23.141243l2.371978-36.910283a48.191638 48.191638 0 0 0 5.496045 22.215593 43.852655 43.852655 0 0 0 15.620339 17.355933 43.042712 43.042712 0 0 0 23.83548 6.653107 43.968362 43.968362 0 0 0 34.133333-13.190509 52.819887 52.819887 0 0 0 12.0913-36.968135V757.875706a54.266215 54.266215 0 0 0-12.0913-37.662373 43.621243 43.621243 0 0 0-34.133333-13.364067 43.447684 43.447684 0 0 0-23.83548 6.537401 43.910508 43.910508 0 0 0-15.620339 16.95096 46.282486 46.282486 0 0 0-5.496045 21.752768l-3.52904-34.017627a55.712542 55.712542 0 0 1 24.414011-24.703276 77.812429 77.812429 0 0 1 35.406102-7.578758 59.010169 59.010169 0 0 1 32.108475 8.446554 53.398418 53.398418 0 0 1 20.30644 24.587571 98.350282 98.350282 0 0 1 6.942373 39.050847v38.472317a94.069153 94.069153 0 0 1-7.115932 38.414463 53.051299 53.051299 0 0 1-20.942825 24.414011 61.960678 61.960678 0 0 1-32.976271 8.388701 80.99435 80.99435 0 0 1-35.868927-7.347345zM344.63096 688.451977h24.471865v248.305537h-24.471865z m43.158419 171.997289a42.695593 42.695593 0 0 1-21.058532-23.141243l2.371978-36.910283a48.075932 48.075932 0 0 0 5.438192 22.215593 44.431186 44.431186 0 0 0 15.678192 17.355933 42.695593 42.695593 0 0 0 23.777627 6.653107 43.968362 43.968362 0 0 0 34.191187-13.537627 52.819887 52.819887 0 0 0 12.091299-36.968136V757.875706a54.266215 54.266215 0 0 0-12.091299-37.662373 43.679096 43.679096 0 0 0-34.191187-13.364067 43.100565 43.100565 0 0 0-23.777627 6.537401 44.48904 44.48904 0 0 0-15.678192 16.95096 46.282486 46.282486 0 0 0-5.438192 21.752768l-3.760452-34.133333a56.001808 56.001808 0 0 1 24.414011-24.703277 78.275254 78.275254 0 0 1 35.463955-7.578757 58.778757 58.778757 0 0 1 32.224181 8.56226 52.704181 52.704181 0 0 1 20.30644 24.587571 97.36678 97.36678 0 0 1 7.000226 39.050847v38.472317a94.069153 94.069153 0 0 1-7.115932 38.414463 53.340565 53.340565 0 0 1-20.942825 24.414011 62.076384 62.076384 0 0 1-32.976271 8.388701 80.99435 80.99435 0 0 1-35.926779-7.347345zM503.032768 688.451977h79.605876v21.058531H503.032768z m28.174464 165.575594c-6.653107-7.925876-9.950734-19.55435-9.950735-35.00113v-182.179435h24.471865v182.295141a26.843842 26.843842 0 0 0 5.091073 17.355932 18.512994 18.512994 0 0 0 15.157514 6.132429h16.661695v22.794125h-20.075028q-21.40565 0.173559-31.356384-11.628475z" fill="#FFFFFF" p-id="2433"></path><path d="M483.073446 199.59322m-89.672316 0a89.672316 89.672316 0 1 0 179.344633 0 89.672316 89.672316 0 1 0-179.344633 0Z" fill="#F9B582" p-id="2434"></path><path d="M350.011299 436.79096m-89.672316 0a89.672316 89.672316 0 1 0 179.344633 0 89.672316 89.672316 0 1 0-179.344633 0Z" fill="#F9B582" p-id="2435"></path><path d="M633.491525 436.79096m-89.672316 0a89.672316 89.672316 0 1 0 179.344633 0 89.672316 89.672316 0 1 0-179.344633 0Z" fill="#F9B582" p-id="2436"></path></svg>