<?xml version="1.0" standalone="no"?><!DOCTYPE svg PUBLIC "-//W3C//DTD SVG 1.1//EN" "http://www.w3.org/Graphics/SVG/1.1/DTD/svg11.dtd"><svg t="1591001640645" class="icon" viewBox="0 0 1024 1024" version="1.1" xmlns="http://www.w3.org/2000/svg" p-id="3949" xmlns:xlink="http://www.w3.org/1999/xlink" width="200" height="200"><defs><style type="text/css"></style></defs><path d="M751.80113 11.570621H210.932429a74.804068 74.804068 0 0 0-74.572655 74.572656v851.713446A74.804068 74.804068 0 0 0 210.932429 1012.429379h708.700565a74.804068 74.804068 0 0 0 74.572656-74.572656V254.032994z" fill="#ECE2F7" p-id="3950"></path><path d="M751.80113 179.344633a74.861921 74.861921 0 0 0 74.572655 74.630508h167.774012L751.80113 11.570621z" fill="#AAA4ED" p-id="3951"></path><path d="M18.223729 624.813559m69.423729 0l569.853107 0q69.423729 0 69.423729 69.423729l0 185.129944q0 69.423729-69.423729 69.423728l-569.853107 0q-69.423729 0-69.423729-69.423728l0-185.129944q0-69.423729 69.423729-69.423729Z" fill="#876DF2" p-id="3952"></path><path d="M279.314802 185.650621h354.350283v49.753673H279.314802zM279.314802 295.455819h354.350283v49.753673H279.314802zM279.314802 405.261017h472.428475v49.753672H279.314802zM279.314802 515.124068h578.126102v49.753672H279.314802z" fill="#AAA4ED" p-id="3953"></path><path d="M139.715254 694.237288h24.471865v248.305537H139.715254z m43.158418 171.997288a42.695593 42.695593 0 0 1-21.058531-23.141243l2.371978-36.910282a48.075932 48.075932 0 0 0 5.438192 22.215593 44.431186 44.431186 0 0 0 15.678192 17.355932 42.695593 42.695593 0 0 0 23.83548 6.248136 43.968362 43.968362 0 0 0 34.364746-13.132656 52.819887 52.819887 0 0 0 11.91774-37.025988V763.661017a54.266215 54.266215 0 0 0-12.0913-37.662373 43.679096 43.679096 0 0 0-34.191186-13.479774 43.100565 43.100565 0 0 0-23.777627 6.537401 44.48904 44.48904 0 0 0-15.678192 16.950961 46.282486 46.282486 0 0 0-5.438192 21.752768l-3.586893-34.017627a56.001808 56.001808 0 0 1 24.414011-24.703277 78.275254 78.275254 0 0 1 35.637515-7.578757 58.778757 58.778757 0 0 1 32.050621 8.56226 52.704181 52.704181 0 0 1 20.306441 24.58757 97.36678 97.36678 0 0 1 7.000226 39.050848v38.472316a93.143503 93.143503 0 0 1-7.289492 38.125198 52.935593 52.935593 0 0 1-20.884972 24.414011 62.076384 62.076384 0 0 1-32.976271 8.388701 80.99435 80.99435 0 0 1-35.811073-7.058079zM358.4 873.061243l-13.421921-2.776949a115.185537 115.185537 0 0 1-25.108248-8.272995 90.945085 90.945085 0 0 1-20.65356-13.074802l14.116158-17.355932a129.533107 129.533107 0 0 0 29.910057 15.041808 89.845876 89.845876 0 0 0 29.447232 5.380339A73.762712 73.762712 0 0 0 411.624859 843.498305a27.36452 27.36452 0 0 0 13.884746-24.529717 21.579209 21.579209 0 0 0-6.710961-17.355933 36.563164 36.563164 0 0 0-16.95096-7.868022 245.412881 245.412881 0 0 0-28.405876-3.35548h-9.661469a168.352542 168.352542 0 0 1-29.273672-5.091074 39.860791 39.860791 0 0 1-19.612204-12.785537 40.786441 40.786441 0 0 1-7.405197-27.653785 49.580113 49.580113 0 0 1 8.272994-28.926554 51.142147 51.142147 0 0 1 24.124746-18.165875 103.094237 103.094237 0 0 1 38.18305-6.305989 121.086554 121.086554 0 0 1 23.141243 2.256271 122.706441 122.706441 0 0 1 21.984181 6.653108 99.507345 99.507345 0 0 1 19.496497 10.471412l-14.116158 16.835254a121.491525 121.491525 0 0 0-26.207457-11.570621 90.655819 90.655819 0 0 0-25.513221-3.991865 60.861469 60.861469 0 0 0-34.711864 8.330848 26.843842 26.843842 0 0 0-12.264859 23.488361 18.628701 18.628701 0 0 0 6.537401 15.967458 36.563164 36.563164 0 0 0 16.719548 6.88452 269.59548 269.59548 0 0 0 27.827345 2.719096H385.880226a153.773559 153.773559 0 0 1 31.529943 4.570395 42.869153 42.869153 0 0 1 21.868475 14.116158 46.282486 46.282486 0 0 1 8.851525 30.430735 48.133785 48.133785 0 0 1-8.851525 29.273672 55.134011 55.134011 0 0 1-25.860339 18.455141 117.615367 117.615367 0 0 1-40.96 6.363842zM498.40452 864.672542a53.340565 53.340565 0 0 1-20.942825-24.414011 94.069153 94.069153 0 0 1-7.115932-38.414463V763.661017a97.36678 97.36678 0 0 1 7.000226-38.935141 52.704181 52.704181 0 0 1 20.017175-24.703277 58.778757 58.778757 0 0 1 32.050621-8.388701 78.275254 78.275254 0 0 1 35.463955 7.578757 56.001808 56.001808 0 0 1 24.414011 24.703277l-3.586892 33.959774a47.092429 47.092429 0 0 0-5.380339-21.926327 42.63774 42.63774 0 0 0-15.562486-16.835255 49.232994 49.232994 0 0 0-57.853107 6.88452 54.266215 54.266215 0 0 0-12.380565 37.662373v38.298757a52.819887 52.819887 0 0 0 12.091299 36.910282 43.968362 43.968362 0 0 0 34.191186 13.190509 42.695593 42.695593 0 0 0 23.777628-6.653107 44.431186 44.431186 0 0 0 15.678192-17.355933 48.075932 48.075932 0 0 0 5.438192-22.215593l2.371977 36.910283a42.695593 42.695593 0 0 1-21.058531 23.141243 80.99435 80.99435 0 0 1-35.92678 7.058079 62.076384 62.076384 0 0 1-32.687005-8.272995z m87.589604-241.421017h24.471865v247.264181h-24.76113z" fill="#FFFFFF" p-id="3954"></path></svg>