<?xml version="1.0" standalone="no"?><!DOCTYPE svg PUBLIC "-//W3C//DTD SVG 1.1//EN" "http://www.w3.org/Graphics/SVG/1.1/DTD/svg11.dtd"><svg t="1591001592839" class="icon" viewBox="0 0 1024 1024" version="1.1" xmlns="http://www.w3.org/2000/svg" p-id="1920" xmlns:xlink="http://www.w3.org/1999/xlink" width="200" height="200"><defs><style type="text/css"></style></defs><path d="M751.80113 11.570621H210.932429a74.804068 74.804068 0 0 0-74.572655 74.572656v851.713446A74.804068 74.804068 0 0 0 210.932429 1012.429379h708.700565a74.804068 74.804068 0 0 0 74.572656-74.572656V254.032994z" fill="#FCEFE3" p-id="1921"></path><path d="M751.80113 179.344633a74.861921 74.861921 0 0 0 74.572655 74.630508h167.774012L751.80113 11.570621z" fill="#F9B582" p-id="1922"></path><path d="M18.223729 624.813559m69.423729 0l569.853107 0q69.423729 0 69.423729 69.423729l0 185.129944q0 69.423729-69.423729 69.423728l-569.853107 0q-69.423729 0-69.423729-69.423728l0-185.129944q0-69.423729 69.423729-69.423729Z" fill="#F49D47" p-id="1923"></path><path d="M236.44565 723.163842h79.605875v21.058531H236.44565z m28.174463 165.575593c-6.653107-7.925876-10.008588-19.55435-10.008588-35.00113v-182.179435h24.529718v182.295141a26.496723 26.496723 0 0 0 5.091073 17.355933 18.512994 18.512994 0 0 0 15.157515 6.132429h16.661694v22.794124H295.918644q-21.347797 0.173559-31.298531-11.628474zM332.655367 723.163842H412.20339v21.058531H332.655367z m28.11661 165.575593c-6.653107-7.925876-9.950734-19.55435-9.950734-35.00113v-182.179435h24.471864v182.295141a26.496723 26.496723 0 0 0 5.148927 17.355933 18.397288 18.397288 0 0 0 15.099661 6.132429h16.661695v22.794124h-20.075028q-21.347797 0.173559-31.356385-11.628474zM428.980791 723.163842h88.110282v21.058531H428.980791z m18.744407-24.00904q0-23.430508 10.06644-35.116836a38.414463 38.414463 0 0 1 30.546441-11.570621h28.926554v22.794124h-24.992543a18.917966 18.917966 0 0 0-15.215367 5.785311 26.785989 26.785989 0 0 0-5.03322 17.760904v200.865988h-24.471865z" fill="#FFFFFF" p-id="1924"></path><path d="M503.784859 233.84226L676.071412 532.248588h94.358419L523.223503 104.135593 276.075028 532.248588h55.423277l172.286554-298.406328z" fill="#F9B582" p-id="1925"></path><path d="M257.967006 510.32226H364.185311V532.248588H257.967006zM632.912994 510.32226h156.20339V532.248588h-156.20339zM370.491299 404.103955h274.97582v37.488813H370.491299z" fill="#F9B582" p-id="1926"></path></svg>