<?xml version="1.0" standalone="no"?><!DOCTYPE svg PUBLIC "-//W3C//DTD SVG 1.1//EN" "http://www.w3.org/Graphics/SVG/1.1/DTD/svg11.dtd"><svg t="1591001612444" class="icon" viewBox="0 0 1024 1024" version="1.1" xmlns="http://www.w3.org/2000/svg" p-id="2684" xmlns:xlink="http://www.w3.org/1999/xlink" width="200" height="200"><defs><style type="text/css"></style></defs><path d="M751.80113 11.570621H210.932429a74.804068 74.804068 0 0 0-74.572655 74.572656v851.713446A74.804068 74.804068 0 0 0 210.932429 1012.429379h708.700565a74.804068 74.804068 0 0 0 74.572656-74.572656V254.032994z" fill="#EFEFEF" p-id="2685"></path><path d="M751.80113 179.344633a74.861921 74.861921 0 0 0 74.572655 74.630508h167.774012L751.80113 11.570621z" fill="#D8D8D8" p-id="2686"></path><path d="M18.223729 624.813559m69.423729 0l569.853107 0q69.423729 0 69.423729 69.423729l0 185.129944q0 69.423729-69.423729 69.423728l-569.853107 0q-69.423729 0-69.423729-69.423728l0-185.129944q0-69.423729 69.423729-69.423729Z" fill="#A3A3A3" p-id="2687"></path><path d="M279.314802 185.650621h354.350283v49.753673H279.314802zM279.314802 295.455819h354.350283v49.753673H279.314802zM279.314802 405.261017h472.428475v49.753672H279.314802zM279.314802 515.124068h578.126102v49.753672H279.314802z" fill="#D8D8D8" p-id="2688"></path><path d="M207.345537 728.949153h79.605875v21.058531H207.345537z m28.174463 165.575593c-6.653107-7.925876-9.950734-19.55435-9.950734-35.00113v-182.179435h24.471864v182.295141a26.843842 26.843842 0 0 0 5.091073 17.355932 18.512994 18.512994 0 0 0 15.157515 6.13243h16.661694v22.794124H266.99209q-21.521356 0.173559-31.47209-11.628475zM371.127684 807.802938l13.59548 20.248587-57.15887 77.176046h-27.422373z m1.041356 14.116158L301.183277 728.949153h27.538079l57.853107 79.258757 72.489944 97.251073h-27.480226z m4.570395-16.314576L428.980791 728.949153h27.595932l-67.167457 94.994802zM466.238192 728.949153H545.844068v21.058531H466.238192z m28.174463 165.575593c-6.653107-7.925876-9.950734-19.55435-9.950734-35.00113v-182.179435h24.471864v182.295141a26.496723 26.496723 0 0 0 5.091074 17.355932 18.512994 18.512994 0 0 0 15.157514 6.13243h16.661695v22.794124h-20.075028q-21.579209 0.173559-31.356385-11.628475z" fill="#FFFFFF" p-id="2689"></path></svg>