<?xml version="1.0" standalone="no"?><!DOCTYPE svg PUBLIC "-//W3C//DTD SVG 1.1//EN" "http://www.w3.org/Graphics/SVG/1.1/DTD/svg11.dtd"><svg t="1591001660319" class="icon" viewBox="0 0 1024 1024" version="1.1" xmlns="http://www.w3.org/2000/svg" p-id="4453" xmlns:xlink="http://www.w3.org/1999/xlink" width="200" height="200"><defs><style type="text/css"></style></defs><path d="M738.613988 10.93433H227.434063c-38.816871 0-70.526428 31.709557-70.526428 70.526428v804.766685c0 38.816871 31.709557 70.526428 70.526428 70.526428h669.72771c38.816871 0 70.526428-31.709557 70.526428-70.526428V240.008542L738.613988 10.93433z" fill="#EFEFEF" p-id="4454"></path><path d="M738.613988 169.482114c0 38.816871 31.709557 70.526428 70.526428 70.526428h158.547785L738.613988 10.93433v158.547784z" fill="#D8D8D8" p-id="4455"></path><path d="M110.983449 590.453817h538.51575c36.083289 0 65.60598 29.522691 65.60598 65.60598v174.949279c0 36.083289-29.522691 65.60598-65.60598 65.60598H110.983449c-36.083289 0-65.60598-29.522691-65.60598-65.60598v-174.949279c0-36.083289 29.522691-65.60598 65.60598-65.60598z" fill="#A3A3A3" p-id="4456"></path><path d="M278.278697 687.769354c0-16.401495-0.546716-27.882541-0.546716-34.989856h18.041644c-0.546716 6.560598-0.546716 18.041644-0.546716 34.989856h35.536572c10.387613 0 20.22851 0 28.975974-0.546717v14.761346c-9.29418-0.546716-19.135077-0.546716-28.975974-0.546717h-35.536572v32.256274h48.111051c12.027763 0 22.962093 0 33.349707-0.546717v14.761346c-10.387613-0.546716-21.321943-0.546716-32.256274-0.546717h-38.816871c9.840897 14.761345 20.22851 27.335825 32.256274 37.723439 11.481046 10.387613 27.882541 18.588361 49.204484 24.602242-7.107314 3.280299-12.027763 8.747464-14.761345 16.948211-14.761345-5.467165-28.429258-13.667912-41.003737-24.602242s-24.602242-26.242392-35.536573-45.377469v56.858515c0 10.387613 0 19.681794 0.546717 28.429258h-18.588361c1.093433-8.747464 1.640149-18.041644 1.640149-28.429258V754.468767c-13.121196 21.321943-25.695675 37.176722-38.270155 48.111051-12.574479 10.93433-23.508809 19.681794-33.349706 26.242392-2.186866-4.920448-7.107314-9.840897-14.761345-14.761345 9.29418-3.280299 20.775227-10.93433 35.536572-22.962093 14.214629-12.027763 26.789108-26.242392 37.723438-43.73732H225.793914c-12.027763 0-21.321943 0.546716-27.335825 0.546717V732.600107c8.200747 0.546716 18.041644 0.546716 28.975974 0.546716h51.938067v-32.256273h-33.896423c-13.121196 0-23.508809 0.546716-31.709556 0.546716v-14.761345c8.200747 0.546716 18.041644 0.546716 30.069407 0.546716h34.443139zM417.144688 810.233849c5.467165-8.200747 10.387613-16.948211 14.214629-26.242391 3.827015-8.747464 6.013881-17.494928 7.107314-26.242392-20.22851 0-34.443139 0.546716-43.190603 0.546716v-15.308062c8.200747 0.546716 23.508809 0.546716 45.377469 0.546717 1.640149-11.481046 2.186866-25.148959 2.186866-41.550454h-18.588361c-2.733582 7.654031-6.560598 16.401495-12.027763 26.789108-6.013881-1.640149-11.481046-2.733582-16.401495-3.827015 3.827015-5.467165 7.654031-12.574479 11.481047-21.321944 3.827015-8.747464 7.107314-17.494928 9.29418-26.242391 2.186866-8.200747 4.373732-15.854778 5.467165-22.415377 5.467165 1.640149 11.481046 2.733582 18.588361 3.827016-2.733582 3.827015-4.920448 8.200747-6.560598 13.121196s-3.280299 10.387613-5.467165 16.401494c30.616124 0 50.297918 0 57.405232-0.546716v14.761345h-27.335825c0 12.027763-0.546716 25.695675-1.640149 41.550454 13.121196 0 24.602242 0 33.896423-0.546716v15.308062c-9.840897-0.546716-21.86866-0.546716-36.630005-0.546717-0.546716 6.013881-1.640149 11.481046-3.280299 16.948212 4.920448 3.827015 10.387613 8.200747 16.401494 12.574479 6.013881 4.373732 13.667912 12.574479 22.962093 22.962093-3.827015 1.640149-8.200747 5.467165-13.121196 11.481046-4.920448-8.200747-9.840897-14.761345-14.761345-19.681794-4.920448-4.920448-10.387613-9.840897-15.854778-14.214628-3.280299 8.747464-8.200747 18.041644-14.761346 27.335824-6.560598 9.840897-13.667912 18.588361-20.775227 26.242392-2.733582-3.280299-7.107314-6.560598-13.121196-9.840897 7.107314-6.560598 13.667912-13.667912 19.135078-21.86866zM573.505606 710.731447v84.194341c0 10.387613 0 20.775227 0.546716 31.709556h-16.948211v-21.86866h-43.190603v25.148959h-16.948212c0.546716-10.387613 0.546716-21.321943 0.546717-32.256273V710.731447c0-8.747464-0.546716-18.588361-0.546717-28.975974h77.087026c0 10.387613-0.546716 20.22851-0.546716 28.975974z m-16.401495 80.914042V694.329952h-43.190603v97.315537h43.190603z" fill="#FFFFFF" p-id="4457"></path><path d="M478.376935 364.659904c-2.186866-10.93433-1.640149-21.321943 1.64015-30.069407 2.733582-8.747464 7.107314-16.948211 12.574479-24.055526 5.467165-7.107314 11.481046-13.667912 18.041645-19.681794 7.107314-6.013881 13.121196-12.027763 19.135077-18.041645s10.93433-12.027763 14.761346-18.041644c3.827015-6.013881 6.013881-12.574479 6.013881-19.681794 0-12.027763-3.827015-21.321943-12.027763-28.429258-8.200747-7.107314-19.135077-10.93433-33.349706-10.93433-11.481046 0-21.86866 2.186866-31.162841 7.107315-9.29418 4.373732-18.041644 10.93433-26.242391 18.588361L416.597971 191.350774c11.481046-12.574479 25.148959-22.415376 40.457021-30.616124 15.308062-7.654031 32.80299-12.027763 52.484784-12.027763 13.667912 0 26.789108 1.640149 38.270155 4.920449 12.027763 3.280299 21.86866 8.747464 30.616123 15.308062 8.747464 6.560598 15.308062 14.761345 19.681794 24.602242 4.920448 9.840897 7.107314 20.775227 7.107315 33.896423 0 10.387613-2.186866 19.681794-6.013882 27.882541-4.373732 8.200747-9.29418 15.854778-15.308062 22.415377-6.013881 6.560598-13.121196 13.121196-19.681793 19.681794-7.107314 6.013881-13.121196 12.574479-19.135078 19.135077-5.467165 6.560598-9.840897 13.667912-13.667912 21.321944-3.280299 7.654031-4.373732 16.401495-3.280299 26.242391h-49.751202z m-15.308062 82.007475c0-13.121196 3.827015-23.508809 12.57448-31.709557 8.200747-7.654031 18.588361-12.027763 30.616124-12.027763 12.027763 0 22.415376 3.827015 30.616124 12.027763 8.200747 7.654031 12.574479 18.588361 12.574479 31.709557 0 13.667912-4.373732 24.055526-12.574479 32.256273-8.200747 8.200747-18.588361 12.027763-30.616124 12.027763-12.027763 0-22.415376-3.827015-30.616124-12.027763-8.200747-8.200747-12.574479-19.135077-12.57448-32.256273z" fill="#D8D8D8" p-id="4458"></path></svg>