<?xml version="1.0" standalone="no"?><!DOCTYPE svg PUBLIC "-//W3C//DTD SVG 1.1//EN" "http://www.w3.org/Graphics/SVG/1.1/DTD/svg11.dtd"><svg t="1591001600093" class="icon" viewBox="0 0 1024 1024" version="1.1" xmlns="http://www.w3.org/2000/svg" p-id="2173" xmlns:xlink="http://www.w3.org/1999/xlink" width="200" height="200"><defs><style type="text/css"></style></defs><path d="M751.80113 11.570621H210.932429a74.804068 74.804068 0 0 0-74.572655 74.572656v851.713446A74.804068 74.804068 0 0 0 210.932429 1012.429379h708.700565a74.804068 74.804068 0 0 0 74.572656-74.572656V254.032994z" fill="#E9FFE9" p-id="2174"></path><path d="M751.80113 179.344633a74.861921 74.861921 0 0 0 74.572655 74.630508h167.774012L751.80113 11.570621z" fill="#97DD97" p-id="2175"></path><path d="M18.223729 624.813559m69.423729 0l569.853107 0q69.423729 0 69.423729 69.423729l0 185.129944q0 69.423729-69.423729 69.423728l-569.853107 0q-69.423729 0-69.423729-69.423728l0-185.129944q0-69.423729 69.423729-69.423729Z" fill="#65CE65" p-id="2176"></path><path d="M244.602938 139.368136h354.350282v49.753672H244.602938z" fill="#97DD97" p-id="2177"></path><path d="M294.35661 139.310282v354.350283h-49.753672V139.310282zM410.062825 139.310282v354.350283h-49.753672V139.310282zM525.76904 139.310282v354.350283h-49.753673V139.310282zM641.475254 139.310282v354.350283h-49.753672V139.310282z" fill="#97DD97" p-id="2178"></path><path d="M244.602938 249.173333h354.350282v49.753673H244.602938zM244.602938 358.978531h374.425311v49.753672H244.602938zM244.602938 468.841582h396.872316v49.753672h-396.872316z" fill="#97DD97" p-id="2179"></path><path d="M242.809492 807.802938l13.59548 20.248587-57.101017 77.176046h-27.422373z m1.041355 14.116158L172.922938 728.949153h27.538079l57.853107 79.258757L330.630508 905.227571h-27.248813z m4.570396-16.314576l52.067797-76.88678h27.538079L261.20678 823.943955zM376.103051 858.829379a25.281808 25.281808 0 0 0 5.785311 17.355932 19.72791 19.72791 0 0 0 15.388926 6.190282h16.314576v22.794125h-20.653559a38.35661 38.35661 0 0 1-30.546441-12.264859 50.44791 50.44791 0 0 1-10.818531-34.711865v-200.229604h24.529718zM479.775819 907.773107l-13.479774-2.776949a115.706215 115.706215 0 0 1-25.050395-8.272994 91.697175 91.697175 0 0 1-20.65356-13.074802l14.116159-17.355933a129.533107 129.533107 0 0 0 29.910056 15.041808 89.55661 89.55661 0 0 0 29.389379 5.380339A74.109831 74.109831 0 0 0 533.116384 878.210169a27.36452 27.36452 0 0 0 13.884746-24.529717 21.579209 21.579209 0 0 0-6.710961-17.355932 36.563164 36.563164 0 0 0-16.95096-7.868023 247.032768 247.032768 0 0 0-28.405876-3.35548h-9.661469a167.36904 167.36904 0 0 1-29.273672-5.091073 40.497175 40.497175 0 0 1-19.670056-12.785537 40.786441 40.786441 0 0 1-7.868023-27.017401 49.52226 49.52226 0 0 1 8.215141-28.926554 51.315706 51.315706 0 0 1 24.182599-18.165876 103.094237 103.094237 0 0 1 38.183051-6.305988 120.045198 120.045198 0 0 1 23.141243 2.256271 121.896497 121.896497 0 0 1 22.504859 6.016723 99.507345 99.507345 0 0 1 19.496497 10.471412l-14.116158 16.835255a118.945989 118.945989 0 0 0-26.207458-11.570622 91.002938 91.002938 0 0 0-25.51322-3.991864 60.977175 60.977175 0 0 0-34.711865 8.330847 26.785989 26.785989 0 0 0-12.207005 23.488362 18.80226 18.80226 0 0 0 6.479548 15.967457 36.794576 36.794576 0 0 0 16.777401 6.88452 267.91774 267.91774 0 0 0 27.827344 2.719096H504.189831a6.595254 6.595254 0 0 0 1.446327 0h2.082712a154.409944 154.409944 0 0 1 31.529944 4.570396 42.869153 42.869153 0 0 1 21.868474 14.116158 46.282486 46.282486 0 0 1 8.851526 30.430734 48.133785 48.133785 0 0 1-8.851526 29.273673 55.134011 55.134011 0 0 1-25.860339 18.455141 117.731073 117.731073 0 0 1-41.017853 6.363842z" fill="#FFFFFF" p-id="2180"></path></svg>